<?xml version="1.0" standalone="no"?>
<!DOCTYPE svg PUBLIC "-//W3C//DTD SVG 20010904//EN"
 "http://www.w3.org/TR/2001/REC-SVG-20010904/DTD/svg10.dtd">
<svg version="1.0" xmlns="http://www.w3.org/2000/svg"
 width="500.000000pt" height="500.000000pt" viewBox="0 0 500.000000 500.000000"
 preserveAspectRatio="xMidYMid meet">

<g transform="translate(0.000000,500.000000) scale(0.100000,-0.100000)"
fill="#000000" stroke="none">
<path d="M2240 4655 l0 -345 -260 0 -260 0 0 -85 0 -85 -170 0 -170 0 0 -85 0
-85 -85 0 -85 0 0 -90 0 -90 -90 0 -90 0 0 -85 0 -85 -85 0 -85 0 0 -170 0
-170 -85 0 -85 0 0 -260 0 -260 -345 0 -345 0 0 -260 0 -260 345 0 345 0 0
-260 0 -260 85 0 85 0 0 -85 0 -85 85 0 85 0 0 -170 0 -170 90 0 90 0 0 -90 0
-90 85 0 85 0 0 -85 0 -85 170 0 170 0 0 -85 0 -85 260 0 260 0 0 -345 0 -345
260 0 260 0 0 345 0 345 260 0 260 0 0 85 0 85 170 0 170 0 0 85 0 85 85 0 85
0 0 90 0 90 90 0 90 0 0 170 0 170 85 0 85 0 0 85 0 85 85 0 85 0 0 260 0 260
345 0 345 0 0 260 0 260 -345 0 -345 0 0 260 0 260 -85 0 -85 0 0 170 0 170
-85 0 -85 0 0 85 0 85 -90 0 -90 0 0 90 0 90 -85 0 -85 0 0 85 0 85 -170 0
-170 0 0 85 0 85 -260 0 -260 0 0 345 0 345 -260 0 -260 0 0 -345z m350 -85
l0 -260 85 0 85 0 0 -85 0 -85 260 0 260 0 0 -85 0 -85 170 0 170 0 0 -90 0
-90 85 0 85 0 0 -85 0 -85 90 0 90 0 0 -170 0 -170 85 0 85 0 0 -260 0 -260
85 0 85 0 0 -85 0 -85 260 0 260 0 0 -90 0 -90 -260 0 -260 0 0 -85 0 -85 -85
0 -85 0 0 -260 0 -260 -85 0 -85 0 0 -85 0 -85 -90 0 -90 0 0 -170 0 -170 -85
0 -85 0 0 -90 0 -90 -170 0 -170 0 0 -85 0 -85 -260 0 -260 0 0 -85 0 -85 -85
0 -85 0 0 -260 0 -260 -90 0 -90 0 0 260 0 260 -85 0 -85 0 0 85 0 85 -260 0
-260 0 0 85 0 85 -170 0 -170 0 0 90 0 90 -85 0 -85 0 0 170 0 170 -90 0 -90
0 0 85 0 85 -85 0 -85 0 0 260 0 260 -85 0 -85 0 0 85 0 85 -260 0 -260 0 0
90 0 90 260 0 260 0 0 85 0 85 85 0 85 0 0 260 0 260 85 0 85 0 0 170 0 170
90 0 90 0 0 85 0 85 85 0 85 0 0 90 0 90 170 0 170 0 0 85 0 85 260 0 260 0 0
85 0 85 85 0 85 0 0 260 0 260 90 0 90 0 0 -260z"/>
<path d="M2070 3880 l0 -90 -175 0 -175 0 0 -85 0 -85 -85 0 -85 0 0 -85 0
-85 -85 0 -85 0 0 -175 0 -175 -85 0 -85 0 0 -85 0 -85 -90 0 -90 0 0 -430 0
-430 90 0 90 0 0 -85 0 -85 85 0 85 0 0 -175 0 -175 85 0 85 0 0 -85 0 -85 85
0 85 0 0 -85 0 -85 260 0 260 0 0 -90 0 -90 260 0 260 0 0 90 0 90 260 0 260
0 0 85 0 85 85 0 85 0 0 85 0 85 85 0 85 0 0 175 0 175 85 0 85 0 0 85 0 85
90 0 90 0 0 430 0 430 -90 0 -90 0 0 85 0 85 -85 0 -85 0 0 175 0 175 -85 0
-85 0 0 85 0 85 -85 0 -85 0 0 85 0 85 -175 0 -175 0 0 90 0 90 -430 0 -430 0
0 -90z m860 -175 l0 -85 175 0 175 0 0 -85 0 -85 85 0 85 0 0 -175 0 -175 85
0 85 0 0 -85 0 -85 85 0 85 0 0 -430 0 -430 -85 0 -85 0 0 -85 0 -85 -85 0
-85 0 0 -175 0 -175 -85 0 -85 0 0 -85 0 -85 -260 0 -260 0 0 -85 0 -85 -260
0 -260 0 0 85 0 85 -260 0 -260 0 0 85 0 85 -85 0 -85 0 0 175 0 175 -85 0
-85 0 0 85 0 85 -85 0 -85 0 0 430 0 430 85 0 85 0 0 85 0 85 85 0 85 0 0 175
0 175 85 0 85 0 0 85 0 85 175 0 175 0 0 85 0 85 430 0 430 0 0 -85z"/>
<path d="M2070 3190 l0 -90 -85 0 -85 0 0 -85 0 -85 -90 0 -90 0 0 -430 0
-430 90 0 90 0 0 -85 0 -85 85 0 85 0 0 -90 0 -90 430 0 430 0 0 90 0 90 85 0
85 0 0 85 0 85 90 0 90 0 0 430 0 430 -90 0 -90 0 0 85 0 85 -85 0 -85 0 0 90
0 90 -430 0 -430 0 0 -90z m860 -175 l0 -85 85 0 85 0 0 -430 0 -430 -85 0
-85 0 0 -85 0 -85 -430 0 -430 0 0 85 0 85 -85 0 -85 0 0 430 0 430 85 0 85 0
0 85 0 85 430 0 430 0 0 -85z"/>
</g>
</svg>
